<?xml version="1.0" encoding="UTF-8"?>
<!DOCTYPE svg PUBLIC "-//W3C//DTD SVG 1.1//EN" "http://www.w3.org/Graphics/SVG/1.1/DTD/svg11.dtd">
<svg xmlns="http://www.w3.org/2000/svg" version="1.1" width="128px" height="128px" style="shape-rendering:geometricPrecision; text-rendering:geometricPrecision; image-rendering:optimizeQuality; fill-rule:evenodd; clip-rule:evenodd" xmlns:xlink="http://www.w3.org/1999/xlink">
<g><path style="opacity:0.993" fill="#1195da" d="M 9.5,-0.5 C 21.5,-0.5 33.5,-0.5 45.5,-0.5C 49.1373,2.30598 52.3039,5.63932 55,9.5C 55.9602,22.2623 55.6269,34.9289 54,47.5C 51.4634,50.372 48.6301,52.872 45.5,55C 33.5,55.6667 21.5,55.6667 9.5,55C 5.63932,52.3039 2.30598,49.1373 -0.5,45.5C -0.5,33.5 -0.5,21.5 -0.5,9.5C 2.5,5.83333 5.83333,2.5 9.5,-0.5 Z M 23.5,15.5 C 28.5371,15.0415 33.2038,16.0415 37.5,18.5C 40.3856,25.0556 40.0522,31.3889 36.5,37.5C 18.8883,43.3863 12.3883,37.3863 17,19.5C 18.7479,17.3721 20.9145,16.0388 23.5,15.5 Z"/></g>
<g><path style="opacity:0.993" fill="#1195da" d="M 81.5,-0.5 C 93.5,-0.5 105.5,-0.5 117.5,-0.5C 121.167,2.5 124.5,5.83333 127.5,9.5C 127.5,21.5 127.5,33.5 127.5,45.5C 124.694,49.1373 121.361,52.3039 117.5,55C 104.738,55.9602 92.0711,55.6269 79.5,54C 76.628,51.4634 74.128,48.6301 72,45.5C 71.3333,33.5 71.3333,21.5 72,9.5C 74.6961,5.63932 77.8627,2.30598 81.5,-0.5 Z M 95.5,15.5 C 100.537,15.0415 105.204,16.0415 109.5,18.5C 112.386,25.0556 112.052,31.3889 108.5,37.5C 90.8883,43.3863 84.3883,37.3863 89,19.5C 90.7479,17.3721 92.9145,16.0388 95.5,15.5 Z"/></g>
<g><path style="opacity:0.993" fill="#1195da" d="M 45.5,127.5 C 33.5,127.5 21.5,127.5 9.5,127.5C 5.83333,124.5 2.5,121.167 -0.5,117.5C -0.5,105.5 -0.5,93.5 -0.5,81.5C 2.30598,77.8627 5.63932,74.6961 9.5,72C 22.2623,71.0398 34.9289,71.3731 47.5,73C 50.372,75.5366 52.872,78.3699 55,81.5C 55.6667,93.5 55.6667,105.5 55,117.5C 52.3039,121.361 49.1373,124.694 45.5,127.5 Z M 23.5,87.5 C 28.5371,87.0415 33.2038,88.0415 37.5,90.5C 40.3856,97.0556 40.0522,103.389 36.5,109.5C 18.8883,115.386 12.3883,109.386 17,91.5C 18.7479,89.3721 20.9145,88.0388 23.5,87.5 Z"/></g>
<g><path style="opacity:0.993" fill="#1195da" d="M 127.5,81.5 C 127.5,93.5 127.5,105.5 127.5,117.5C 124.5,121.167 121.167,124.5 117.5,127.5C 105.5,127.5 93.5,127.5 81.5,127.5C 77.8627,124.694 74.6961,121.361 72,117.5C 71.0398,104.738 71.3731,92.0711 73,79.5C 75.5366,76.628 78.3699,74.128 81.5,72C 93.5,71.3333 105.5,71.3333 117.5,72C 121.361,74.6961 124.694,77.8627 127.5,81.5 Z M 95.5,87.5 C 100.537,87.0415 105.204,88.0415 109.5,90.5C 112.386,97.0556 112.052,103.389 108.5,109.5C 90.8883,115.386 84.3883,109.386 89,91.5C 90.7479,89.3721 92.9145,88.0388 95.5,87.5 Z"/></g>
</svg>
